<svg width="393" height="256" viewBox="0 0 393 256" fill="none" xmlns="http://www.w3.org/2000/svg">
<g clip-path="url(#clip0_156_72)">
<path d="M311.114 12.1842C274.106 12.1842 244.104 42.1855 244.104 79.194C244.104 116.203 274.106 146.204 311.114 146.204C348.123 146.204 378.124 116.203 378.124 79.194C378.124 42.1855 348.123 12.1842 311.114 12.1842Z" fill="#F3E3E6"/>
<path d="M311.114 7.62939e-05C354.781 7.62939e-05 390.308 35.5275 390.308 79.1935C390.308 122.86 354.781 158.387 311.114 158.387C267.448 158.387 231.92 122.86 231.92 79.1935C231.92 35.5275 267.448 7.62939e-05 311.114 7.62939e-05ZM311.114 134.02C341.342 134.02 365.941 109.421 365.941 79.1935C365.941 48.966 341.342 24.3673 311.114 24.3673C280.887 24.3673 256.288 48.966 256.288 79.1935C256.288 109.421 280.887 134.02 311.114 134.02Z" fill="#F3E3E6"/>
<path d="M103.992 12.1842C66.9832 12.1842 36.9818 42.1855 36.9818 79.194C36.9818 116.203 66.9832 146.204 103.992 146.204C141 146.204 171.002 116.203 171.002 79.194C171.002 42.1855 141 12.1842 103.992 12.1842Z" fill="#F3E3E6"/>
<path d="M103.99 7.62939e-05C147.657 7.62939e-05 183.184 35.5275 183.184 79.1935C183.184 122.86 147.657 158.387 103.99 158.387C60.3241 158.387 24.7965 122.86 24.7965 79.1935C24.7965 35.5275 60.3241 7.62939e-05 103.99 7.62939e-05ZM103.99 134.02C134.218 134.02 158.817 109.421 158.817 79.1935C158.817 48.966 134.218 24.3673 103.99 24.3673C73.7627 24.3673 49.1639 48.966 49.1639 79.1935C49.1639 109.421 73.7627 134.02 103.99 134.02Z" fill="#F3E3E6"/>
<path d="M378.125 73.1023C384.862 73.1023 390.308 78.5484 390.308 85.2859C390.308 179.343 313.795 255.857 219.737 255.857C212.999 255.857 207.553 250.41 207.553 243.673C207.553 236.935 212.999 231.489 219.737 231.489C300.356 231.489 365.941 165.905 365.941 85.2859C365.941 78.5484 371.387 73.1023 378.125 73.1023Z" fill="#F3E3E6"/>
<path d="M171.001 73.1023C177.738 73.1023 183.184 78.5484 183.184 85.2859C183.184 179.343 106.671 255.857 12.613 255.857C5.87544 255.857 0.429337 250.41 0.429337 243.673C0.429337 236.935 5.87544 231.489 12.613 231.489C93.2324 231.489 158.817 165.905 158.817 85.2859C158.817 78.5484 164.263 73.1023 171.001 73.1023Z" fill="#F3E3E6"/>
</g>
<defs>
<clipPath id="clip0_156_72">
<rect width="392.171" height="256" fill="white" transform="matrix(-1 0 0 -1 392.171 256)"/>
</clipPath>
</defs>
</svg>
