<svg width="25" height="24" viewBox="0 0 25 24" fill="none" xmlns="http://www.w3.org/2000/svg">
<path d="M23.9492 4.86563L21.4217 0.614063C21.1968 0.234375 20.7954 0 20.3675 0H4.62916C4.2013 0 3.7999 0.234375 3.57494 0.614063L1.04304 4.86563C-0.262612 7.05938 0.893064 10.1109 3.33233 10.4625C3.50877 10.4859 3.68962 10.5 3.86606 10.5C5.01733 10.5 6.04067 9.96563 6.74202 9.14062C7.44336 9.96563 8.46671 10.5 9.61798 10.5C10.7692 10.5 11.7926 9.96563 12.4939 9.14062C13.1953 9.96563 14.2186 10.5 15.3699 10.5C16.5256 10.5 17.5445 9.96563 18.2458 9.14062C18.9516 9.96563 19.9705 10.5 21.1218 10.5C21.3027 10.5 21.4791 10.4859 21.6555 10.4625C24.1036 10.1156 25.2637 7.06406 23.9537 4.86563H23.9492ZM21.8364 11.9484H21.832C21.5982 11.9812 21.36 12 21.1174 12C20.5704 12 20.0455 11.9109 19.5559 11.7516V18H5.44078V11.7469C4.94675 11.9109 4.41743 12 3.87047 12C3.62787 12 3.38527 11.9812 3.15148 11.9484H3.14707C2.96622 11.9203 2.78978 11.8875 2.61776 11.8406V18V21C2.61776 22.6547 3.88371 24 5.44078 24H19.5559C21.113 24 22.3789 22.6547 22.3789 21V18V11.8406C22.2025 11.8875 22.0261 11.925 21.8364 11.9484Z" fill="white"/>
<path d="M23.9492 4.86563L21.4217 0.614063C21.1968 0.234375 20.7954 0 20.3675 0H4.62916C4.2013 0 3.7999 0.234375 3.57494 0.614063L1.04304 4.86563C-0.262612 7.05938 0.893064 10.1109 3.33233 10.4625C3.50877 10.4859 3.68962 10.5 3.86606 10.5C5.01733 10.5 6.04067 9.96563 6.74202 9.14062C7.44336 9.96563 8.46671 10.5 9.61798 10.5C10.7692 10.5 11.7926 9.96563 12.4939 9.14062C13.1953 9.96563 14.2186 10.5 15.3699 10.5C16.5256 10.5 17.5445 9.96563 18.2458 9.14062C18.9516 9.96563 19.9705 10.5 21.1218 10.5C21.3027 10.5 21.4791 10.4859 21.6555 10.4625C24.1036 10.1156 25.2637 7.06406 23.9537 4.86563H23.9492ZM21.8364 11.9484H21.832C21.5982 11.9812 21.36 12 21.1174 12C20.5704 12 20.0455 11.9109 19.5559 11.7516V18H5.44078V11.7469C4.94675 11.9109 4.41743 12 3.87047 12C3.62787 12 3.38527 11.9812 3.15148 11.9484H3.14707C2.96622 11.9203 2.78978 11.8875 2.61776 11.8406V18V21C2.61776 22.6547 3.88371 24 5.44078 24H19.5559C21.113 24 22.3789 22.6547 22.3789 21V18V11.8406C22.2025 11.8875 22.0261 11.925 21.8364 11.9484Z" fill="#201C1D" fill-opacity="0.05"/>
</svg>
