<svg width="25" height="22" viewBox="0 0 25 22" fill="none" xmlns="http://www.w3.org/2000/svg">
<path d="M8.38437 17.0422C7.68125 16.7891 6.89844 16.8969 6.29375 17.3422C5.90937 17.6234 5.24844 18.0359 4.44687 18.4062C4.70937 17.7172 4.91094 16.9391 4.97656 16.0906C5.02344 15.4859 4.82187 14.8859 4.42344 14.4266C3.33125 13.1938 2.75 11.75 2.75 10.25C2.75 6.52344 6.65469 2.75 12.5 2.75C18.3453 2.75 22.25 6.52344 22.25 10.25C22.25 13.9766 18.3453 17.75 12.5 17.75C11.0188 17.75 9.62656 17.4922 8.38437 17.0422ZM1.73281 18.8656C1.65781 18.9922 1.57812 19.1187 1.49375 19.2453L1.47969 19.2687C1.40469 19.3766 1.32969 19.4844 1.25469 19.5922C1.09063 19.8125 0.9125 20.0281 0.725 20.225C0.509375 20.4406 0.448437 20.7594 0.565625 21.0406C0.682812 21.3219 0.954688 21.5047 1.25938 21.5047C1.49844 21.5047 1.7375 21.4906 1.97656 21.4672L2.00938 21.4625C2.21563 21.4391 2.42188 21.4109 2.62813 21.3734C2.66563 21.3687 2.70312 21.3594 2.74062 21.35C3.575 21.1859 4.37656 20.9047 5.08906 20.5953C6.1625 20.1266 7.07656 19.5688 7.63437 19.1609C9.125 19.7 10.775 20 12.5141 20C19.1422 20 24.5141 15.6359 24.5141 10.25C24.5141 4.86406 19.1281 0.5 12.5 0.5C5.87188 0.5 0.5 4.86406 0.5 10.25C0.5 12.3641 1.32969 14.3187 2.73594 15.9172C2.64688 17.0656 2.20156 18.0875 1.73281 18.8656ZM7.25 11.75C7.64782 11.75 8.02936 11.592 8.31066 11.3107C8.59196 11.0294 8.75 10.6478 8.75 10.25C8.75 9.85218 8.59196 9.47064 8.31066 9.18934C8.02936 8.90804 7.64782 8.75 7.25 8.75C6.85218 8.75 6.47064 8.90804 6.18934 9.18934C5.90804 9.47064 5.75 9.85218 5.75 10.25C5.75 10.6478 5.90804 11.0294 6.18934 11.3107C6.47064 11.592 6.85218 11.75 7.25 11.75ZM14 10.25C14 9.85218 13.842 9.47064 13.5607 9.18934C13.2794 8.90804 12.8978 8.75 12.5 8.75C12.1022 8.75 11.7206 8.90804 11.4393 9.18934C11.158 9.47064 11 9.85218 11 10.25C11 10.6478 11.158 11.0294 11.4393 11.3107C11.7206 11.592 12.1022 11.75 12.5 11.75C12.8978 11.75 13.2794 11.592 13.5607 11.3107C13.842 11.0294 14 10.6478 14 10.25ZM17.75 11.75C18.1478 11.75 18.5294 11.592 18.8107 11.3107C19.092 11.0294 19.25 10.6478 19.25 10.25C19.25 9.85218 19.092 9.47064 18.8107 9.18934C18.5294 8.90804 18.1478 8.75 17.75 8.75C17.3522 8.75 16.9706 8.90804 16.6893 9.18934C16.408 9.47064 16.25 9.85218 16.25 10.25C16.25 10.6478 16.408 11.0294 16.6893 11.3107C16.9706 11.592 17.3522 11.75 17.75 11.75Z" fill="white"/>
<path d="M8.38437 17.0422C7.68125 16.7891 6.89844 16.8969 6.29375 17.3422C5.90937 17.6234 5.24844 18.0359 4.44687 18.4062C4.70937 17.7172 4.91094 16.9391 4.97656 16.0906C5.02344 15.4859 4.82187 14.8859 4.42344 14.4266C3.33125 13.1938 2.75 11.75 2.75 10.25C2.75 6.52344 6.65469 2.75 12.5 2.75C18.3453 2.75 22.25 6.52344 22.25 10.25C22.25 13.9766 18.3453 17.75 12.5 17.75C11.0188 17.75 9.62656 17.4922 8.38437 17.0422ZM1.73281 18.8656C1.65781 18.9922 1.57812 19.1187 1.49375 19.2453L1.47969 19.2687C1.40469 19.3766 1.32969 19.4844 1.25469 19.5922C1.09063 19.8125 0.9125 20.0281 0.725 20.225C0.509375 20.4406 0.448437 20.7594 0.565625 21.0406C0.682812 21.3219 0.954688 21.5047 1.25938 21.5047C1.49844 21.5047 1.7375 21.4906 1.97656 21.4672L2.00938 21.4625C2.21563 21.4391 2.42188 21.4109 2.62813 21.3734C2.66563 21.3687 2.70312 21.3594 2.74062 21.35C3.575 21.1859 4.37656 20.9047 5.08906 20.5953C6.1625 20.1266 7.07656 19.5688 7.63437 19.1609C9.125 19.7 10.775 20 12.5141 20C19.1422 20 24.5141 15.6359 24.5141 10.25C24.5141 4.86406 19.1281 0.5 12.5 0.5C5.87188 0.5 0.5 4.86406 0.5 10.25C0.5 12.3641 1.32969 14.3187 2.73594 15.9172C2.64688 17.0656 2.20156 18.0875 1.73281 18.8656ZM7.25 11.75C7.64782 11.75 8.02936 11.592 8.31066 11.3107C8.59196 11.0294 8.75 10.6478 8.75 10.25C8.75 9.85218 8.59196 9.47064 8.31066 9.18934C8.02936 8.90804 7.64782 8.75 7.25 8.75C6.85218 8.75 6.47064 8.90804 6.18934 9.18934C5.90804 9.47064 5.75 9.85218 5.75 10.25C5.75 10.6478 5.90804 11.0294 6.18934 11.3107C6.47064 11.592 6.85218 11.75 7.25 11.75ZM14 10.25C14 9.85218 13.842 9.47064 13.5607 9.18934C13.2794 8.90804 12.8978 8.75 12.5 8.75C12.1022 8.75 11.7206 8.90804 11.4393 9.18934C11.158 9.47064 11 9.85218 11 10.25C11 10.6478 11.158 11.0294 11.4393 11.3107C11.7206 11.592 12.1022 11.75 12.5 11.75C12.8978 11.75 13.2794 11.592 13.5607 11.3107C13.842 11.0294 14 10.6478 14 10.25ZM17.75 11.75C18.1478 11.75 18.5294 11.592 18.8107 11.3107C19.092 11.0294 19.25 10.6478 19.25 10.25C19.25 9.85218 19.092 9.47064 18.8107 9.18934C18.5294 8.90804 18.1478 8.75 17.75 8.75C17.3522 8.75 16.9706 8.90804 16.6893 9.18934C16.408 9.47064 16.25 9.85218 16.25 10.25C16.25 10.6478 16.408 11.0294 16.6893 11.3107C16.9706 11.592 17.3522 11.75 17.75 11.75Z" fill="#201C1D" fill-opacity="0.05"/>
</svg>
